<?xml version="1.0" encoding="UTF-8" standalone="no"?>
<!DOCTYPE svg PUBLIC "-//W3C//DTD SVG 1.1//EN"
 "http://www.w3.org/Graphics/SVG/1.1/DTD/svg11.dtd">
<!-- Generated by graphviz version 2.40.1 (20161225.0304)
 -->
<!-- Title: dependencies Pages: 1 -->
<svg width="504pt" height="211pt"
 viewBox="0.00 0.00 504.00 211.00" xmlns="http://www.w3.org/2000/svg" xmlns:xlink="http://www.w3.org/1999/xlink">
<g id="graph0" class="graph" transform="scale(1 1) rotate(0) translate(4 207)">
<title>dependencies</title>
<polygon fill="#ffffff" stroke="transparent" points="-4,4 -4,-207 500,-207 500,4 -4,4"/>
<text text-anchor="start" x="227.0091" y="-42.4" font-family="sans-serif" font-weight="bold" font-size="14.00" fill="#000000">Legend</text>
<polygon fill="#ffffb3" stroke="transparent" points="14,-10 14,-30 34,-30 34,-10 14,-10"/>
<text text-anchor="start" x="37.629" y="-15.4" font-family="sans-serif" font-size="14.00" fill="#000000"> &#160;Declarations</text>
<polygon fill="#8dd3c7" stroke="transparent" points="127,-10 127,-30 147,-30 147,-10 127,-10"/>
<text text-anchor="start" x="150.7251" y="-15.4" font-family="sans-serif" font-size="14.00" fill="#000000"> &#160;Module</text>
<polygon fill="#80b1d3" stroke="transparent" points="213,-10 213,-30 233,-30 233,-10 213,-10"/>
<text text-anchor="start" x="236.7812" y="-15.4" font-family="sans-serif" font-size="14.00" fill="#000000"> &#160;Bootstrap</text>
<polygon fill="#fdb462" stroke="transparent" points="310,-10 310,-30 330,-30 330,-10 310,-10"/>
<text text-anchor="start" x="333.6732" y="-15.4" font-family="sans-serif" font-size="14.00" fill="#000000"> &#160;Providers</text>
<polygon fill="#fb8072" stroke="transparent" points="406,-10 406,-30 426,-30 426,-10 406,-10"/>
<text text-anchor="start" x="429.7258" y="-15.4" font-family="sans-serif" font-size="14.00" fill="#000000"> &#160;Exports</text>
<g id="clust1" class="cluster">
<title>cluster_ResidentModule</title>
<polygon fill="none" stroke="#000000" stroke-dasharray="1,5" points="11,-70 11,-195 485,-195 485,-70 11,-70"/>
</g>
<g id="clust3" class="cluster">
<title>cluster_ResidentModule_imports</title>
<polygon fill="none" stroke="#000000" points="191,-78 191,-130 477,-130 477,-78 191,-78"/>
</g>
<g id="clust6" class="cluster">
<title>cluster_ResidentModule_providers</title>
<polygon fill="none" stroke="#000000" points="19,-78 19,-130 183,-130 183,-78 19,-78"/>
</g>
<!-- ThemeModule -->
<g id="node1" class="node">
<title>ThemeModule</title>
<polygon fill="#8dd3c7" stroke="#000000" points="469.4231,-122 466.4231,-126 445.4231,-126 442.4231,-122 370.5769,-122 370.5769,-86 469.4231,-86 469.4231,-122"/>
<text text-anchor="middle" x="420" y="-99.8" font-family="Times,serif" font-size="14.00" fill="#000000">ThemeModule</text>
</g>
<!-- ResidentModule -->
<g id="node3" class="node">
<title>ResidentModule</title>
<polygon fill="#8dd3c7" stroke="#000000" points="330.0424,-187 327.0424,-191 306.0424,-191 303.0424,-187 221.9576,-187 221.9576,-151 330.0424,-151 330.0424,-187"/>
<text text-anchor="middle" x="276" y="-164.8" font-family="Times,serif" font-size="14.00" fill="#000000">ResidentModule</text>
</g>
<!-- ThemeModule&#45;&gt;ResidentModule -->
<g id="edge1" class="edge">
<title>ThemeModule&#45;&gt;ResidentModule</title>
<path fill="none" stroke="#000000" d="M420,-122.1061C420,-141.3391 420,-169 420,-169 420,-169 340.4402,-169 340.4402,-169"/>
<polygon fill="#000000" stroke="#000000" points="340.4403,-165.5001 330.4402,-169 340.4402,-172.5001 340.4403,-165.5001"/>
</g>
<!-- ResidentRoutingModule -->
<g id="node2" class="node">
<title>ResidentRoutingModule</title>
<polygon fill="#8dd3c7" stroke="#000000" points="352.6596,-122 349.6596,-126 328.6596,-126 325.6596,-122 199.3404,-122 199.3404,-86 352.6596,-86 352.6596,-122"/>
<text text-anchor="middle" x="276" y="-99.8" font-family="Times,serif" font-size="14.00" fill="#000000">ResidentRoutingModule</text>
</g>
<!-- ResidentRoutingModule&#45;&gt;ResidentModule -->
<g id="edge2" class="edge">
<title>ResidentRoutingModule&#45;&gt;ResidentModule</title>
<path fill="none" stroke="#000000" d="M276,-122.1061C276,-122.1061 276,-140.991 276,-140.991"/>
<polygon fill="#000000" stroke="#000000" points="272.5001,-140.9909 276,-150.991 279.5001,-140.991 272.5001,-140.9909"/>
</g>
<!-- ResidentService -->
<g id="node4" class="node">
<title>ResidentService</title>
<ellipse fill="#fdb462" stroke="#000000" cx="101" cy="-104" rx="73.5714" ry="18"/>
<text text-anchor="middle" x="101" y="-99.8" font-family="Times,serif" font-size="14.00" fill="#000000">ResidentService</text>
</g>
<!-- ResidentService&#45;&gt;ResidentModule -->
<g id="edge3" class="edge">
<title>ResidentService&#45;&gt;ResidentModule</title>
<path fill="none" stroke="#000000" d="M101,-122.1061C101,-141.3391 101,-169 101,-169 101,-169 211.5882,-169 211.5882,-169"/>
<polygon fill="#000000" stroke="#000000" points="211.5882,-172.5001 221.5882,-169 211.5882,-165.5001 211.5882,-172.5001"/>
</g>
</g>
</svg>
