<?xml version="1.0" encoding="UTF-8" standalone="no"?>
<!DOCTYPE svg PUBLIC "-//W3C//DTD SVG 1.1//EN"
 "http://www.w3.org/Graphics/SVG/1.1/DTD/svg11.dtd">
<!-- Generated by graphviz version 2.40.1 (20161225.0304)
 -->
<!-- Title: dependencies Pages: 1 -->
<svg width="570pt" height="211pt"
 viewBox="0.00 0.00 570.00 211.00" xmlns="http://www.w3.org/2000/svg" xmlns:xlink="http://www.w3.org/1999/xlink">
<g id="graph0" class="graph" transform="scale(1 1) rotate(0) translate(4 207)">
<title>dependencies</title>
<polygon fill="#ffffff" stroke="transparent" points="-4,4 -4,-207 566,-207 566,4 -4,4"/>
<text text-anchor="start" x="260.0091" y="-42.4" font-family="sans-serif" font-weight="bold" font-size="14.00" fill="#000000">Legend</text>
<polygon fill="#ffffb3" stroke="transparent" points="47,-10 47,-30 67,-30 67,-10 47,-10"/>
<text text-anchor="start" x="70.629" y="-15.4" font-family="sans-serif" font-size="14.00" fill="#000000"> &#160;Declarations</text>
<polygon fill="#8dd3c7" stroke="transparent" points="160,-10 160,-30 180,-30 180,-10 160,-10"/>
<text text-anchor="start" x="183.7251" y="-15.4" font-family="sans-serif" font-size="14.00" fill="#000000"> &#160;Module</text>
<polygon fill="#80b1d3" stroke="transparent" points="246,-10 246,-30 266,-30 266,-10 246,-10"/>
<text text-anchor="start" x="269.7812" y="-15.4" font-family="sans-serif" font-size="14.00" fill="#000000"> &#160;Bootstrap</text>
<polygon fill="#fdb462" stroke="transparent" points="343,-10 343,-30 363,-30 363,-10 343,-10"/>
<text text-anchor="start" x="366.6732" y="-15.4" font-family="sans-serif" font-size="14.00" fill="#000000"> &#160;Providers</text>
<polygon fill="#fb8072" stroke="transparent" points="439,-10 439,-30 459,-30 459,-10 439,-10"/>
<text text-anchor="start" x="462.7258" y="-15.4" font-family="sans-serif" font-size="14.00" fill="#000000"> &#160;Exports</text>
<g id="clust1" class="cluster">
<title>cluster_HouseModule</title>
<polygon fill="none" stroke="#000000" stroke-dasharray="1,5" points="8,-70 8,-195 554,-195 554,-70 8,-70"/>
</g>
<g id="clust3" class="cluster">
<title>cluster_HouseModule_imports</title>
<polygon fill="none" stroke="#000000" points="248,-78 248,-130 546,-130 546,-78 248,-78"/>
</g>
<g id="clust6" class="cluster">
<title>cluster_HouseModule_providers</title>
<polygon fill="none" stroke="#000000" points="16,-78 16,-130 240,-130 240,-78 16,-78"/>
</g>
<!-- ThemeModule -->
<g id="node1" class="node">
<title>ThemeModule</title>
<polygon fill="#8dd3c7" stroke="#000000" points="538.4231,-122 535.4231,-126 514.4231,-126 511.4231,-122 439.5769,-122 439.5769,-86 538.4231,-86 538.4231,-122"/>
<text text-anchor="middle" x="489" y="-99.8" font-family="Times,serif" font-size="14.00" fill="#000000">ThemeModule</text>
</g>
<!-- HouseModule -->
<g id="node3" class="node">
<title>HouseModule</title>
<polygon fill="#8dd3c7" stroke="#000000" points="386.8161,-187 383.8161,-191 362.8161,-191 359.8161,-187 291.1839,-187 291.1839,-151 386.8161,-151 386.8161,-187"/>
<text text-anchor="middle" x="339" y="-164.8" font-family="Times,serif" font-size="14.00" fill="#000000">HouseModule</text>
</g>
<!-- ThemeModule&#45;&gt;HouseModule -->
<g id="edge1" class="edge">
<title>ThemeModule&#45;&gt;HouseModule</title>
<path fill="none" stroke="#000000" d="M489,-122.1061C489,-141.3391 489,-169 489,-169 489,-169 396.8734,-169 396.8734,-169"/>
<polygon fill="#000000" stroke="#000000" points="396.8734,-165.5001 386.8734,-169 396.8733,-172.5001 396.8734,-165.5001"/>
</g>
<!-- HomePageRoutingModule -->
<g id="node2" class="node">
<title>HomePageRoutingModule</title>
<polygon fill="#8dd3c7" stroke="#000000" points="422.0912,-122 419.0912,-126 398.0912,-126 395.0912,-122 255.9088,-122 255.9088,-86 422.0912,-86 422.0912,-122"/>
<text text-anchor="middle" x="339" y="-99.8" font-family="Times,serif" font-size="14.00" fill="#000000">HomePageRoutingModule</text>
</g>
<!-- HomePageRoutingModule&#45;&gt;HouseModule -->
<g id="edge2" class="edge">
<title>HomePageRoutingModule&#45;&gt;HouseModule</title>
<path fill="none" stroke="#000000" d="M339,-122.1061C339,-122.1061 339,-140.991 339,-140.991"/>
<polygon fill="#000000" stroke="#000000" points="335.5001,-140.9909 339,-150.991 342.5001,-140.991 335.5001,-140.9909"/>
</g>
<!-- ProcessHttpMsgService -->
<g id="node4" class="node">
<title>ProcessHttpMsgService</title>
<ellipse fill="#fdb462" stroke="#000000" cx="128" cy="-104" rx="103.647" ry="18"/>
<text text-anchor="middle" x="128" y="-99.8" font-family="Times,serif" font-size="14.00" fill="#000000">ProcessHttpMsgService</text>
</g>
<!-- ProcessHttpMsgService&#45;&gt;HouseModule -->
<g id="edge3" class="edge">
<title>ProcessHttpMsgService&#45;&gt;HouseModule</title>
<path fill="none" stroke="#000000" d="M128,-122.1061C128,-141.3391 128,-169 128,-169 128,-169 281.1208,-169 281.1208,-169"/>
<polygon fill="#000000" stroke="#000000" points="281.1209,-172.5001 291.1208,-169 281.1208,-165.5001 281.1209,-172.5001"/>
</g>
</g>
</svg>
