<?xml version="1.0" encoding="UTF-8" standalone="no"?>
<!DOCTYPE svg PUBLIC "-//W3C//DTD SVG 1.1//EN"
 "http://www.w3.org/Graphics/SVG/1.1/DTD/svg11.dtd">
<!-- Generated by graphviz version 2.40.1 (20161225.0304)
 -->
<!-- Title: dependencies Pages: 1 -->
<svg width="620pt" height="211pt"
 viewBox="0.00 0.00 620.00 211.00" xmlns="http://www.w3.org/2000/svg" xmlns:xlink="http://www.w3.org/1999/xlink">
<g id="graph0" class="graph" transform="scale(1 1) rotate(0) translate(4 207)">
<title>dependencies</title>
<polygon fill="#ffffff" stroke="transparent" points="-4,4 -4,-207 616,-207 616,4 -4,4"/>
<text text-anchor="start" x="285.0091" y="-42.4" font-family="sans-serif" font-weight="bold" font-size="14.00" fill="#000000">Legend</text>
<polygon fill="#ffffb3" stroke="transparent" points="72,-10 72,-30 92,-30 92,-10 72,-10"/>
<text text-anchor="start" x="95.629" y="-15.4" font-family="sans-serif" font-size="14.00" fill="#000000"> &#160;Declarations</text>
<polygon fill="#8dd3c7" stroke="transparent" points="185,-10 185,-30 205,-30 205,-10 185,-10"/>
<text text-anchor="start" x="208.7251" y="-15.4" font-family="sans-serif" font-size="14.00" fill="#000000"> &#160;Module</text>
<polygon fill="#80b1d3" stroke="transparent" points="271,-10 271,-30 291,-30 291,-10 271,-10"/>
<text text-anchor="start" x="294.7812" y="-15.4" font-family="sans-serif" font-size="14.00" fill="#000000"> &#160;Bootstrap</text>
<polygon fill="#fdb462" stroke="transparent" points="368,-10 368,-30 388,-30 388,-10 368,-10"/>
<text text-anchor="start" x="391.6732" y="-15.4" font-family="sans-serif" font-size="14.00" fill="#000000"> &#160;Providers</text>
<polygon fill="#fb8072" stroke="transparent" points="464,-10 464,-30 484,-30 484,-10 464,-10"/>
<text text-anchor="start" x="487.7258" y="-15.4" font-family="sans-serif" font-size="14.00" fill="#000000"> &#160;Exports</text>
<g id="clust1" class="cluster">
<title>cluster_FlatModule</title>
<polygon fill="none" stroke="#000000" stroke-dasharray="1,5" points="8,-70 8,-195 604,-195 604,-70 8,-70"/>
</g>
<g id="clust3" class="cluster">
<title>cluster_FlatModule_imports</title>
<polygon fill="none" stroke="#000000" points="338,-78 338,-130 596,-130 596,-78 338,-78"/>
</g>
<g id="clust6" class="cluster">
<title>cluster_FlatModule_providers</title>
<polygon fill="none" stroke="#000000" points="16,-78 16,-130 330,-130 330,-78 16,-78"/>
</g>
<!-- ThemeModule -->
<g id="node1" class="node">
<title>ThemeModule</title>
<polygon fill="#8dd3c7" stroke="#000000" points="588.4231,-122 585.4231,-126 564.4231,-126 561.4231,-122 489.5769,-122 489.5769,-86 588.4231,-86 588.4231,-122"/>
<text text-anchor="middle" x="539" y="-99.8" font-family="Times,serif" font-size="14.00" fill="#000000">ThemeModule</text>
</g>
<!-- FlatModule -->
<g id="node3" class="node">
<title>FlatModule</title>
<polygon fill="#8dd3c7" stroke="#000000" points="363.8289,-187 360.8289,-191 339.8289,-191 336.8289,-187 282.1711,-187 282.1711,-151 363.8289,-151 363.8289,-187"/>
<text text-anchor="middle" x="323" y="-164.8" font-family="Times,serif" font-size="14.00" fill="#000000">FlatModule</text>
</g>
<!-- ThemeModule&#45;&gt;FlatModule -->
<g id="edge1" class="edge">
<title>ThemeModule&#45;&gt;FlatModule</title>
<path fill="none" stroke="#000000" d="M539,-122.1061C539,-141.3391 539,-169 539,-169 539,-169 373.8819,-169 373.8819,-169"/>
<polygon fill="#000000" stroke="#000000" points="373.8819,-165.5001 363.8819,-169 373.8818,-172.5001 373.8819,-165.5001"/>
</g>
<!-- FlatRoutingModule -->
<g id="node2" class="node">
<title>FlatRoutingModule</title>
<polygon fill="#8dd3c7" stroke="#000000" points="472.4468,-122 469.4468,-126 448.4468,-126 445.4468,-122 345.5532,-122 345.5532,-86 472.4468,-86 472.4468,-122"/>
<text text-anchor="middle" x="409" y="-99.8" font-family="Times,serif" font-size="14.00" fill="#000000">FlatRoutingModule</text>
</g>
<!-- FlatRoutingModule&#45;&gt;FlatModule -->
<g id="edge2" class="edge">
<title>FlatRoutingModule&#45;&gt;FlatModule</title>
<path fill="none" stroke="#000000" d="M354.7206,-122.1061C354.7206,-122.1061 354.7206,-140.991 354.7206,-140.991"/>
<polygon fill="#000000" stroke="#000000" points="351.2206,-140.9909 354.7206,-150.991 358.2206,-140.991 351.2206,-140.9909"/>
</g>
<!-- SmartTableService -->
<g id="node4" class="node">
<title>SmartTableService</title>
<ellipse fill="#fdb462" stroke="#000000" cx="237" cy="-104" rx="85.085" ry="18"/>
<text text-anchor="middle" x="237" y="-99.8" font-family="Times,serif" font-size="14.00" fill="#000000">SmartTableService</text>
</g>
<!-- SmartTableService&#45;&gt;FlatModule -->
<g id="edge3" class="edge">
<title>SmartTableService&#45;&gt;FlatModule</title>
<path fill="none" stroke="#000000" d="M302.1892,-115.6207C302.1892,-115.6207 302.1892,-140.8534 302.1892,-140.8534"/>
<polygon fill="#000000" stroke="#000000" points="298.6893,-140.8533 302.1892,-150.8534 305.6893,-140.8534 298.6893,-140.8533"/>
</g>
<!-- FlatService -->
<g id="node5" class="node">
<title>FlatService</title>
<ellipse fill="#fdb462" stroke="#000000" cx="79" cy="-104" rx="55.0285" ry="18"/>
<text text-anchor="middle" x="79" y="-99.8" font-family="Times,serif" font-size="14.00" fill="#000000">FlatService</text>
</g>
<!-- FlatService&#45;&gt;FlatModule -->
<g id="edge4" class="edge">
<title>FlatService&#45;&gt;FlatModule</title>
<path fill="none" stroke="#000000" d="M79,-122.1061C79,-141.3391 79,-169 79,-169 79,-169 272.1599,-169 272.1599,-169"/>
<polygon fill="#000000" stroke="#000000" points="272.1599,-172.5001 282.1599,-169 272.1599,-165.5001 272.1599,-172.5001"/>
</g>
</g>
</svg>
