<?xml version="1.0" encoding="UTF-8" standalone="no"?>
<!DOCTYPE svg PUBLIC "-//W3C//DTD SVG 1.1//EN"
 "http://www.w3.org/Graphics/SVG/1.1/DTD/svg11.dtd">
<!-- Generated by graphviz version 2.40.1 (20161225.0304)
 -->
<!-- Title: dependencies Pages: 1 -->
<svg width="728pt" height="284pt"
 viewBox="0.00 0.00 728.00 284.00" xmlns="http://www.w3.org/2000/svg" xmlns:xlink="http://www.w3.org/1999/xlink">
<g id="graph0" class="graph" transform="scale(1 1) rotate(0) translate(4 280)">
<title>dependencies</title>
<polygon fill="#ffffff" stroke="transparent" points="-4,4 -4,-280 724,-280 724,4 -4,4"/>
<text text-anchor="start" x="339.0091" y="-42.4" font-family="sans-serif" font-weight="bold" font-size="14.00" fill="#000000">Legend</text>
<polygon fill="#ffffb3" stroke="transparent" points="126,-10 126,-30 146,-30 146,-10 126,-10"/>
<text text-anchor="start" x="149.629" y="-15.4" font-family="sans-serif" font-size="14.00" fill="#000000"> &#160;Declarations</text>
<polygon fill="#8dd3c7" stroke="transparent" points="239,-10 239,-30 259,-30 259,-10 239,-10"/>
<text text-anchor="start" x="262.7251" y="-15.4" font-family="sans-serif" font-size="14.00" fill="#000000"> &#160;Module</text>
<polygon fill="#80b1d3" stroke="transparent" points="325,-10 325,-30 345,-30 345,-10 325,-10"/>
<text text-anchor="start" x="348.7812" y="-15.4" font-family="sans-serif" font-size="14.00" fill="#000000"> &#160;Bootstrap</text>
<polygon fill="#fdb462" stroke="transparent" points="422,-10 422,-30 442,-30 442,-10 422,-10"/>
<text text-anchor="start" x="445.6732" y="-15.4" font-family="sans-serif" font-size="14.00" fill="#000000"> &#160;Providers</text>
<polygon fill="#fb8072" stroke="transparent" points="518,-10 518,-30 538,-30 538,-10 518,-10"/>
<text text-anchor="start" x="541.7258" y="-15.4" font-family="sans-serif" font-size="14.00" fill="#000000"> &#160;Exports</text>
<g id="clust1" class="cluster">
<title>cluster_AppModule</title>
<polygon fill="none" stroke="#000000" stroke-dasharray="1,5" points="8,-70 8,-268 712,-268 712,-70 8,-70"/>
</g>
<g id="clust2" class="cluster">
<title>cluster_AppModule_declarations</title>
<polygon fill="none" stroke="#000000" points="400,-78 400,-130 704,-130 704,-78 400,-78"/>
</g>
<g id="clust5" class="cluster">
<title>cluster_AppModule_imports</title>
<polygon fill="none" stroke="#000000" points="248,-78 248,-130 392,-130 392,-78 248,-78"/>
</g>
<g id="clust7" class="cluster">
<title>cluster_AppModule_bootstrap</title>
<polygon fill="none" stroke="#000000" points="343,-208 343,-260 467,-260 467,-208 343,-208"/>
</g>
<g id="clust8" class="cluster">
<title>cluster_AppModule_providers</title>
<polygon fill="none" stroke="#000000" points="16,-78 16,-130 240,-130 240,-78 16,-78"/>
</g>
<!-- AppComponent -->
<g id="node1" class="node">
<title>AppComponent</title>
<polygon fill="#ffffb3" stroke="#000000" points="695.9399,-122 590.0601,-122 590.0601,-86 695.9399,-86 695.9399,-122"/>
<text text-anchor="middle" x="643" y="-99.8" font-family="Times,serif" font-size="14.00" fill="#000000">AppComponent</text>
</g>
<!-- AppModule -->
<g id="node3" class="node">
<title>AppModule</title>
<polygon fill="#8dd3c7" stroke="#000000" points="446.6571,-187 443.6571,-191 422.6571,-191 419.6571,-187 363.3429,-187 363.3429,-151 446.6571,-151 446.6571,-187"/>
<text text-anchor="middle" x="405" y="-164.8" font-family="Times,serif" font-size="14.00" fill="#000000">AppModule</text>
</g>
<!-- AppComponent&#45;&gt;AppModule -->
<g id="edge1" class="edge">
<title>AppComponent&#45;&gt;AppModule</title>
<path fill="none" stroke="#000000" d="M643,-122.1061C643,-141.3391 643,-169 643,-169 643,-169 456.7288,-169 456.7288,-169"/>
<polygon fill="#000000" stroke="#000000" points="456.7288,-165.5001 446.7288,-169 456.7287,-172.5001 456.7288,-165.5001"/>
</g>
<!-- AutoCompleteComponent -->
<g id="node2" class="node">
<title>AutoCompleteComponent</title>
<polygon fill="#ffffb3" stroke="#000000" points="571.7674,-122 408.2326,-122 408.2326,-86 571.7674,-86 571.7674,-122"/>
<text text-anchor="middle" x="490" y="-99.8" font-family="Times,serif" font-size="14.00" fill="#000000">AutoCompleteComponent</text>
</g>
<!-- AutoCompleteComponent&#45;&gt;AppModule -->
<g id="edge2" class="edge">
<title>AutoCompleteComponent&#45;&gt;AppModule</title>
<path fill="none" stroke="#000000" d="M427.4723,-122.1061C427.4723,-122.1061 427.4723,-140.991 427.4723,-140.991"/>
<polygon fill="#000000" stroke="#000000" points="423.9724,-140.9909 427.4723,-150.991 430.9724,-140.991 423.9724,-140.9909"/>
</g>
<!-- AppComponent  -->
<g id="node5" class="node">
<title>AppComponent </title>
<polygon fill="#80b1d3" stroke="#000000" points="459.439,-252 350.561,-252 350.561,-216 459.439,-216 459.439,-252"/>
<text text-anchor="middle" x="405" y="-229.8" font-family="Times,serif" font-size="14.00" fill="#000000">AppComponent </text>
</g>
<!-- AppModule&#45;&gt;AppComponent  -->
<g id="edge4" class="edge">
<title>AppModule&#45;&gt;AppComponent </title>
<path fill="none" stroke="#000000" stroke-dasharray="1,5" d="M405,-187.1061C405,-187.1061 405,-205.991 405,-205.991"/>
<polygon fill="#000000" stroke="#000000" points="401.5001,-205.9909 405,-215.991 408.5001,-205.991 401.5001,-205.9909"/>
</g>
<!-- AppRoutingModule -->
<g id="node4" class="node">
<title>AppRoutingModule</title>
<polygon fill="#8dd3c7" stroke="#000000" points="384.2744,-122 381.2744,-126 360.2744,-126 357.2744,-122 255.7256,-122 255.7256,-86 384.2744,-86 384.2744,-122"/>
<text text-anchor="middle" x="320" y="-99.8" font-family="Times,serif" font-size="14.00" fill="#000000">AppRoutingModule</text>
</g>
<!-- AppRoutingModule&#45;&gt;AppModule -->
<g id="edge3" class="edge">
<title>AppRoutingModule&#45;&gt;AppModule</title>
<path fill="none" stroke="#000000" d="M373.7795,-122.1061C373.7795,-122.1061 373.7795,-140.991 373.7795,-140.991"/>
<polygon fill="#000000" stroke="#000000" points="370.2795,-140.9909 373.7795,-150.991 377.2795,-140.991 370.2795,-140.9909"/>
</g>
<!-- ProcessHttpMsgService -->
<g id="node6" class="node">
<title>ProcessHttpMsgService</title>
<ellipse fill="#fdb462" stroke="#000000" cx="128" cy="-104" rx="103.647" ry="18"/>
<text text-anchor="middle" x="128" y="-99.8" font-family="Times,serif" font-size="14.00" fill="#000000">ProcessHttpMsgService</text>
</g>
<!-- ProcessHttpMsgService&#45;&gt;AppModule -->
<g id="edge5" class="edge">
<title>ProcessHttpMsgService&#45;&gt;AppModule</title>
<path fill="none" stroke="#000000" d="M128,-122.1061C128,-141.3391 128,-169 128,-169 128,-169 353.2304,-169 353.2304,-169"/>
<polygon fill="#000000" stroke="#000000" points="353.2304,-172.5001 363.2304,-169 353.2304,-165.5001 353.2304,-172.5001"/>
</g>
</g>
</svg>
