<?xml version="1.0" encoding="UTF-8" standalone="no"?>
<!DOCTYPE svg PUBLIC "-//W3C//DTD SVG 1.1//EN"
 "http://www.w3.org/Graphics/SVG/1.1/DTD/svg11.dtd">
<!-- Generated by graphviz version 2.40.1 (20161225.0304)
 -->
<!-- Title: dependencies Pages: 1 -->
<svg width="649pt" height="211pt"
 viewBox="0.00 0.00 649.00 211.00" xmlns="http://www.w3.org/2000/svg" xmlns:xlink="http://www.w3.org/1999/xlink">
<g id="graph0" class="graph" transform="scale(1 1) rotate(0) translate(4 207)">
<title>dependencies</title>
<polygon fill="#ffffff" stroke="transparent" points="-4,4 -4,-207 645,-207 645,4 -4,4"/>
<text text-anchor="start" x="299.5091" y="-42.4" font-family="sans-serif" font-weight="bold" font-size="14.00" fill="#000000">Legend</text>
<polygon fill="#ffffb3" stroke="transparent" points="86.5,-10 86.5,-30 106.5,-30 106.5,-10 86.5,-10"/>
<text text-anchor="start" x="110.129" y="-15.4" font-family="sans-serif" font-size="14.00" fill="#000000"> &#160;Declarations</text>
<polygon fill="#8dd3c7" stroke="transparent" points="199.5,-10 199.5,-30 219.5,-30 219.5,-10 199.5,-10"/>
<text text-anchor="start" x="223.2251" y="-15.4" font-family="sans-serif" font-size="14.00" fill="#000000"> &#160;Module</text>
<polygon fill="#80b1d3" stroke="transparent" points="285.5,-10 285.5,-30 305.5,-30 305.5,-10 285.5,-10"/>
<text text-anchor="start" x="309.2812" y="-15.4" font-family="sans-serif" font-size="14.00" fill="#000000"> &#160;Bootstrap</text>
<polygon fill="#fdb462" stroke="transparent" points="382.5,-10 382.5,-30 402.5,-30 402.5,-10 382.5,-10"/>
<text text-anchor="start" x="406.1732" y="-15.4" font-family="sans-serif" font-size="14.00" fill="#000000"> &#160;Providers</text>
<polygon fill="#fb8072" stroke="transparent" points="478.5,-10 478.5,-30 498.5,-30 498.5,-10 478.5,-10"/>
<text text-anchor="start" x="502.2258" y="-15.4" font-family="sans-serif" font-size="14.00" fill="#000000"> &#160;Exports</text>
<g id="clust1" class="cluster">
<title>cluster_PagesModule</title>
<polygon fill="none" stroke="#000000" stroke-dasharray="1,5" points="8,-70 8,-195 633,-195 633,-70 8,-70"/>
</g>
<g id="clust3" class="cluster">
<title>cluster_PagesModule_imports</title>
<polygon fill="none" stroke="#000000" points="16,-78 16,-130 625,-130 625,-78 16,-78"/>
</g>
<!-- PagesRoutingModule -->
<g id="node1" class="node">
<title>PagesRoutingModule</title>
<polygon fill="#8dd3c7" stroke="#000000" points="616.8244,-122 613.8244,-126 592.8244,-126 589.8244,-122 479.1756,-122 479.1756,-86 616.8244,-86 616.8244,-122"/>
<text text-anchor="middle" x="548" y="-99.8" font-family="Times,serif" font-size="14.00" fill="#000000">PagesRoutingModule</text>
</g>
<!-- PagesModule -->
<g id="node6" class="node">
<title>PagesModule</title>
<polygon fill="#8dd3c7" stroke="#000000" points="343.2064,-187 340.2064,-191 319.2064,-191 316.2064,-187 250.7936,-187 250.7936,-151 343.2064,-151 343.2064,-187"/>
<text text-anchor="middle" x="297" y="-164.8" font-family="Times,serif" font-size="14.00" fill="#000000">PagesModule</text>
</g>
<!-- PagesRoutingModule&#45;&gt;PagesModule -->
<g id="edge1" class="edge">
<title>PagesRoutingModule&#45;&gt;PagesModule</title>
<path fill="none" stroke="#000000" d="M548,-122.2843C548,-143.3211 548,-175 548,-175 548,-175 353.3298,-175 353.3298,-175"/>
<polygon fill="#000000" stroke="#000000" points="353.3298,-171.5001 343.3298,-175 353.3297,-178.5001 353.3298,-171.5001"/>
</g>
<!-- ThemeModule -->
<g id="node2" class="node">
<title>ThemeModule</title>
<polygon fill="#8dd3c7" stroke="#000000" points="461.4231,-122 458.4231,-126 437.4231,-126 434.4231,-122 362.5769,-122 362.5769,-86 461.4231,-86 461.4231,-122"/>
<text text-anchor="middle" x="412" y="-99.8" font-family="Times,serif" font-size="14.00" fill="#000000">ThemeModule</text>
</g>
<!-- ThemeModule&#45;&gt;PagesModule -->
<g id="edge2" class="edge">
<title>ThemeModule&#45;&gt;PagesModule</title>
<path fill="none" stroke="#000000" d="M412,-122.0225C412,-139.3734 412,-163 412,-163 412,-163 353.1123,-163 353.1123,-163"/>
<polygon fill="#000000" stroke="#000000" points="353.1123,-159.5001 343.1123,-163 353.1122,-166.5001 353.1123,-159.5001"/>
</g>
<!-- HouseModule -->
<g id="node3" class="node">
<title>HouseModule</title>
<polygon fill="#8dd3c7" stroke="#000000" points="344.8161,-122 341.8161,-126 320.8161,-126 317.8161,-122 249.1839,-122 249.1839,-86 344.8161,-86 344.8161,-122"/>
<text text-anchor="middle" x="297" y="-99.8" font-family="Times,serif" font-size="14.00" fill="#000000">HouseModule</text>
</g>
<!-- HouseModule&#45;&gt;PagesModule -->
<g id="edge3" class="edge">
<title>HouseModule&#45;&gt;PagesModule</title>
<path fill="none" stroke="#000000" d="M297,-122.1061C297,-122.1061 297,-140.991 297,-140.991"/>
<polygon fill="#000000" stroke="#000000" points="293.5001,-140.9909 297,-150.991 300.5001,-140.991 293.5001,-140.9909"/>
</g>
<!-- FlatModule -->
<g id="node4" class="node">
<title>FlatModule</title>
<polygon fill="#8dd3c7" stroke="#000000" points="231.8289,-122 228.8289,-126 207.8289,-126 204.8289,-122 150.1711,-122 150.1711,-86 231.8289,-86 231.8289,-122"/>
<text text-anchor="middle" x="191" y="-99.8" font-family="Times,serif" font-size="14.00" fill="#000000">FlatModule</text>
</g>
<!-- FlatModule&#45;&gt;PagesModule -->
<g id="edge4" class="edge">
<title>FlatModule&#45;&gt;PagesModule</title>
<path fill="none" stroke="#000000" d="M191,-122.0225C191,-139.3734 191,-163 191,-163 191,-163 240.8152,-163 240.8152,-163"/>
<polygon fill="#000000" stroke="#000000" points="240.8152,-166.5001 250.8152,-163 240.8152,-159.5001 240.8152,-166.5001"/>
</g>
<!-- ResidentModule -->
<g id="node5" class="node">
<title>ResidentModule</title>
<polygon fill="#8dd3c7" stroke="#000000" points="132.0424,-122 129.0424,-126 108.0424,-126 105.0424,-122 23.9576,-122 23.9576,-86 132.0424,-86 132.0424,-122"/>
<text text-anchor="middle" x="78" y="-99.8" font-family="Times,serif" font-size="14.00" fill="#000000">ResidentModule</text>
</g>
<!-- ResidentModule&#45;&gt;PagesModule -->
<g id="edge5" class="edge">
<title>ResidentModule&#45;&gt;PagesModule</title>
<path fill="none" stroke="#000000" d="M78,-122.2843C78,-143.3211 78,-175 78,-175 78,-175 240.8233,-175 240.8233,-175"/>
<polygon fill="#000000" stroke="#000000" points="240.8234,-178.5001 250.8233,-175 240.8233,-171.5001 240.8234,-178.5001"/>
</g>
</g>
</svg>
