<?xml version="1.0" encoding="UTF-8" standalone="no"?>
<!DOCTYPE svg PUBLIC "-//W3C//DTD SVG 1.1//EN"
 "http://www.w3.org/Graphics/SVG/1.1/DTD/svg11.dtd">
<!-- Generated by graphviz version 2.40.1 (20161225.0304)
 -->
<!-- Title: dependencies Pages: 1 -->
<svg width="2216pt" height="295pt"
 viewBox="0.00 0.00 2216.00 295.00" xmlns="http://www.w3.org/2000/svg" xmlns:xlink="http://www.w3.org/1999/xlink">
<g id="graph0" class="graph" transform="scale(1 1) rotate(0) translate(4 291)">
<title>dependencies</title>
<polygon fill="#ffffff" stroke="transparent" points="-4,4 -4,-291 2212,-291 2212,4 -4,4"/>
<text text-anchor="start" x="1083.0091" y="-42.4" font-family="sans-serif" font-weight="bold" font-size="14.00" fill="#000000">Legend</text>
<polygon fill="#ffffb3" stroke="transparent" points="870,-10 870,-30 890,-30 890,-10 870,-10"/>
<text text-anchor="start" x="893.629" y="-15.4" font-family="sans-serif" font-size="14.00" fill="#000000"> &#160;Declarations</text>
<polygon fill="#8dd3c7" stroke="transparent" points="983,-10 983,-30 1003,-30 1003,-10 983,-10"/>
<text text-anchor="start" x="1006.7251" y="-15.4" font-family="sans-serif" font-size="14.00" fill="#000000"> &#160;Module</text>
<polygon fill="#80b1d3" stroke="transparent" points="1069,-10 1069,-30 1089,-30 1089,-10 1069,-10"/>
<text text-anchor="start" x="1092.7812" y="-15.4" font-family="sans-serif" font-size="14.00" fill="#000000"> &#160;Bootstrap</text>
<polygon fill="#fdb462" stroke="transparent" points="1166,-10 1166,-30 1186,-30 1186,-10 1166,-10"/>
<text text-anchor="start" x="1189.6732" y="-15.4" font-family="sans-serif" font-size="14.00" fill="#000000"> &#160;Providers</text>
<polygon fill="#fb8072" stroke="transparent" points="1262,-10 1262,-30 1282,-30 1282,-10 1262,-10"/>
<text text-anchor="start" x="1285.7258" y="-15.4" font-family="sans-serif" font-size="14.00" fill="#000000"> &#160;Exports</text>
<g id="clust1" class="cluster">
<title>cluster_AppModule</title>
<polygon fill="none" stroke="#000000" stroke-dasharray="1,5" points="8,-70 8,-279 712,-279 712,-70 8,-70"/>
</g>
<g id="clust2" class="cluster">
<title>cluster_AppModule_declarations</title>
<polygon fill="none" stroke="#000000" points="168,-78 168,-130 472,-130 472,-78 168,-78"/>
</g>
<g id="clust5" class="cluster">
<title>cluster_AppModule_imports</title>
<polygon fill="none" stroke="#000000" points="16,-78 16,-130 160,-130 160,-78 16,-78"/>
</g>
<g id="clust7" class="cluster">
<title>cluster_AppModule_bootstrap</title>
<polygon fill="none" stroke="#000000" points="272,-219 272,-271 396,-271 396,-219 272,-219"/>
</g>
<g id="clust8" class="cluster">
<title>cluster_AppModule_providers</title>
<polygon fill="none" stroke="#000000" points="480,-78 480,-130 704,-130 704,-78 480,-78"/>
</g>
<g id="clust27" class="cluster">
<title>cluster_FlatModule</title>
<polygon fill="none" stroke="#000000" stroke-dasharray="1,5" points="1238,-70 1238,-206 1834,-206 1834,-70 1238,-70"/>
</g>
<g id="clust29" class="cluster">
<title>cluster_FlatModule_imports</title>
<polygon fill="none" stroke="#000000" points="1246,-78 1246,-130 1504,-130 1504,-78 1246,-78"/>
</g>
<g id="clust32" class="cluster">
<title>cluster_FlatModule_providers</title>
<polygon fill="none" stroke="#000000" points="1512,-78 1512,-130 1826,-130 1826,-78 1512,-78"/>
</g>
<g id="clust45" class="cluster">
<title>cluster_HouseModule</title>
<polygon fill="none" stroke="#000000" stroke-dasharray="1,5" points="720,-70 720,-206 1230,-206 1230,-70 720,-70"/>
</g>
<g id="clust47" class="cluster">
<title>cluster_HouseModule_imports</title>
<polygon fill="none" stroke="#000000" points="882,-78 882,-130 1222,-130 1222,-78 882,-78"/>
</g>
<g id="clust50" class="cluster">
<title>cluster_HouseModule_providers</title>
<polygon fill="none" stroke="#000000" points="728,-78 728,-130 874,-130 874,-78 728,-78"/>
</g>
<g id="clust57" class="cluster">
<title>cluster_PagesModule</title>
<polygon fill="none" stroke="#000000" stroke-dasharray="1,5" points="1842,-146 1842,-271 2138,-271 2138,-146 1842,-146"/>
</g>
<g id="clust59" class="cluster">
<title>cluster_PagesModule_imports</title>
<polygon fill="none" stroke="#000000" points="1850,-154 1850,-206 2130,-206 2130,-154 1850,-154"/>
</g>
<g id="clust69" class="cluster">
<title>cluster_ResidentModule</title>
<polygon fill="none" stroke="#000000" stroke-dasharray="1,5" points="1842,-70 1842,-138 2200,-138 2200,-70 1842,-70"/>
</g>
<g id="clust71" class="cluster">
<title>cluster_ResidentModule_imports</title>
<polygon fill="none" stroke="#000000" points="2022,-78 2022,-130 2192,-130 2192,-78 2022,-78"/>
</g>
<g id="clust74" class="cluster">
<title>cluster_ResidentModule_providers</title>
<polygon fill="none" stroke="#000000" points="1850,-78 1850,-130 2014,-130 2014,-78 1850,-78"/>
</g>
<!-- AppComponent -->
<g id="node1" class="node">
<title>AppComponent</title>
<polygon fill="#ffffb3" stroke="#000000" points="463.9399,-122 358.0601,-122 358.0601,-86 463.9399,-86 463.9399,-122"/>
<text text-anchor="middle" x="411" y="-99.8" font-family="Times,serif" font-size="14.00" fill="#000000">AppComponent</text>
</g>
<!-- AppModule -->
<g id="node3" class="node">
<title>AppModule</title>
<polygon fill="#8dd3c7" stroke="#000000" points="375.6571,-198 372.6571,-202 351.6571,-202 348.6571,-198 292.3429,-198 292.3429,-162 375.6571,-162 375.6571,-198"/>
<text text-anchor="middle" x="334" y="-175.8" font-family="Times,serif" font-size="14.00" fill="#000000">AppModule</text>
</g>
<!-- AppComponent&#45;&gt;AppModule -->
<g id="edge1" class="edge">
<title>AppComponent&#45;&gt;AppModule</title>
<path fill="none" stroke="#000000" d="M367.0544,-122.0109C367.0544,-122.0109 367.0544,-151.855 367.0544,-151.855"/>
<polygon fill="#000000" stroke="#000000" points="363.5544,-151.8549 367.0544,-161.855 370.5544,-151.855 363.5544,-151.8549"/>
</g>
<!-- AutoCompleteComponent -->
<g id="node2" class="node">
<title>AutoCompleteComponent</title>
<polygon fill="#ffffb3" stroke="#000000" points="339.7674,-122 176.2326,-122 176.2326,-86 339.7674,-86 339.7674,-122"/>
<text text-anchor="middle" x="258" y="-99.8" font-family="Times,serif" font-size="14.00" fill="#000000">AutoCompleteComponent</text>
</g>
<!-- AutoCompleteComponent&#45;&gt;AppModule -->
<g id="edge2" class="edge">
<title>AutoCompleteComponent&#45;&gt;AppModule</title>
<path fill="none" stroke="#000000" d="M316.0277,-122.0109C316.0277,-122.0109 316.0277,-151.855 316.0277,-151.855"/>
<polygon fill="#000000" stroke="#000000" points="312.5278,-151.8549 316.0277,-161.855 319.5278,-151.855 312.5278,-151.8549"/>
</g>
<!-- AppComponent  -->
<g id="node5" class="node">
<title>AppComponent </title>
<polygon fill="#80b1d3" stroke="#000000" points="388.439,-263 279.561,-263 279.561,-227 388.439,-227 388.439,-263"/>
<text text-anchor="middle" x="334" y="-240.8" font-family="Times,serif" font-size="14.00" fill="#000000">AppComponent </text>
</g>
<!-- AppModule&#45;&gt;AppComponent  -->
<g id="edge4" class="edge">
<title>AppModule&#45;&gt;AppComponent </title>
<path fill="none" stroke="#000000" stroke-dasharray="1,5" d="M334,-198.1061C334,-198.1061 334,-216.991 334,-216.991"/>
<polygon fill="#000000" stroke="#000000" points="330.5001,-216.9909 334,-226.991 337.5001,-216.991 330.5001,-216.9909"/>
</g>
<!-- AppRoutingModule -->
<g id="node4" class="node">
<title>AppRoutingModule</title>
<polygon fill="#8dd3c7" stroke="#000000" points="152.2744,-122 149.2744,-126 128.2744,-126 125.2744,-122 23.7256,-122 23.7256,-86 152.2744,-86 152.2744,-122"/>
<text text-anchor="middle" x="88" y="-99.8" font-family="Times,serif" font-size="14.00" fill="#000000">AppRoutingModule</text>
</g>
<!-- AppRoutingModule&#45;&gt;AppModule -->
<g id="edge3" class="edge">
<title>AppRoutingModule&#45;&gt;AppModule</title>
<path fill="none" stroke="#000000" d="M88,-122.0109C88,-144.4852 88,-180 88,-180 88,-180 282.2695,-180 282.2695,-180"/>
<polygon fill="#000000" stroke="#000000" points="282.2695,-183.5001 292.2695,-180 282.2694,-176.5001 282.2695,-183.5001"/>
</g>
<!-- ProcessHttpMsgService -->
<g id="node6" class="node">
<title>ProcessHttpMsgService</title>
<ellipse fill="#fdb462" stroke="#000000" cx="592" cy="-104" rx="103.647" ry="18"/>
<text text-anchor="middle" x="592" y="-99.8" font-family="Times,serif" font-size="14.00" fill="#000000">ProcessHttpMsgService</text>
</g>
<!-- ProcessHttpMsgService&#45;&gt;AppModule -->
<g id="edge5" class="edge">
<title>ProcessHttpMsgService&#45;&gt;AppModule</title>
<path fill="none" stroke="#000000" d="M540.0883,-119.6411C540.0883,-139.1582 540.0883,-170 540.0883,-170 540.0883,-170 385.705,-170 385.705,-170"/>
<polygon fill="#000000" stroke="#000000" points="385.7051,-166.5001 375.705,-170 385.705,-173.5001 385.7051,-166.5001"/>
</g>
<!-- HouseModule -->
<g id="node13" class="node">
<title>HouseModule</title>
<polygon fill="#8dd3c7" stroke="#000000" points="1092.8161,-198 1089.8161,-202 1068.8161,-202 1065.8161,-198 997.1839,-198 997.1839,-162 1092.8161,-162 1092.8161,-198"/>
<text text-anchor="middle" x="1045" y="-175.8" font-family="Times,serif" font-size="14.00" fill="#000000">HouseModule</text>
</g>
<!-- ProcessHttpMsgService&#45;&gt;HouseModule -->
<g id="edge12" class="edge">
<title>ProcessHttpMsgService&#45;&gt;HouseModule</title>
<path fill="none" stroke="#000000" d="M592,-122.0265C592,-147.5093 592,-191 592,-191 592,-191 986.9499,-191 986.9499,-191"/>
<polygon fill="#000000" stroke="#000000" points="986.95,-194.5001 996.9499,-191 986.9499,-187.5001 986.95,-194.5001"/>
</g>
<!-- ProcessHttpMsgService&#45;&gt;HouseModule -->
<g id="edge16" class="edge">
<title>ProcessHttpMsgService&#45;&gt;HouseModule</title>
<path fill="none" stroke="#000000" d="M643.9117,-119.8054C643.9117,-143.1199 643.9117,-184 643.9117,-184 643.9117,-184 987.0178,-184 987.0178,-184"/>
<polygon fill="#000000" stroke="#000000" points="987.0178,-187.5001 997.0178,-184 987.0177,-180.5001 987.0178,-187.5001"/>
</g>
<!-- ThemeModule -->
<g id="node7" class="node">
<title>ThemeModule</title>
<polygon fill="#8dd3c7" stroke="#000000" points="1352.4231,-122 1349.4231,-126 1328.4231,-126 1325.4231,-122 1253.5769,-122 1253.5769,-86 1352.4231,-86 1352.4231,-122"/>
<text text-anchor="middle" x="1303" y="-99.8" font-family="Times,serif" font-size="14.00" fill="#000000">ThemeModule</text>
</g>
<!-- FlatModule -->
<g id="node9" class="node">
<title>FlatModule</title>
<polygon fill="#8dd3c7" stroke="#000000" points="1615.8289,-198 1612.8289,-202 1591.8289,-202 1588.8289,-198 1534.1711,-198 1534.1711,-162 1615.8289,-162 1615.8289,-198"/>
<text text-anchor="middle" x="1575" y="-175.8" font-family="Times,serif" font-size="14.00" fill="#000000">FlatModule</text>
</g>
<!-- ThemeModule&#45;&gt;FlatModule -->
<g id="edge6" class="edge">
<title>ThemeModule&#45;&gt;FlatModule</title>
<path fill="none" stroke="#000000" d="M1335.8074,-122.0265C1335.8074,-147.5093 1335.8074,-191 1335.8074,-191 1335.8074,-191 1524.1531,-191 1524.1531,-191"/>
<polygon fill="#000000" stroke="#000000" points="1524.1531,-194.5001 1534.1531,-191 1524.1531,-187.5001 1524.1531,-194.5001"/>
</g>
<!-- ThemeModule&#45;&gt;HouseModule -->
<g id="edge10" class="edge">
<title>ThemeModule&#45;&gt;HouseModule</title>
<path fill="none" stroke="#000000" d="M1303,-122.0449C1303,-143.6623 1303,-177 1303,-177 1303,-177 1102.9232,-177 1102.9232,-177"/>
<polygon fill="#000000" stroke="#000000" points="1102.9232,-173.5001 1092.9232,-177 1102.9231,-180.5001 1102.9232,-173.5001"/>
</g>
<!-- ThemeModule&#45;&gt;HouseModule -->
<g id="edge13" class="edge">
<title>ThemeModule&#45;&gt;HouseModule</title>
<path fill="none" stroke="#000000" d="M1286.5963,-122.0348C1286.5963,-141.5762 1286.5963,-170 1286.5963,-170 1286.5963,-170 1102.7317,-170 1102.7317,-170"/>
<polygon fill="#000000" stroke="#000000" points="1102.7317,-166.5001 1092.7317,-170 1102.7316,-173.5001 1102.7317,-166.5001"/>
</g>
<!-- ResidentModule -->
<g id="node17" class="node">
<title>ResidentModule</title>
<polygon fill="#8dd3c7" stroke="#000000" points="1966.0424,-198 1963.0424,-202 1942.0424,-202 1939.0424,-198 1857.9576,-198 1857.9576,-162 1966.0424,-162 1966.0424,-198"/>
<text text-anchor="middle" x="1912" y="-175.8" font-family="Times,serif" font-size="14.00" fill="#000000">ResidentModule</text>
</g>
<!-- ThemeModule&#45;&gt;ResidentModule -->
<g id="edge22" class="edge">
<title>ThemeModule&#45;&gt;ResidentModule</title>
<path fill="none" stroke="#000000" d="M1270.1926,-122.2434C1270.1926,-129.4297 1270.1926,-136 1270.1926,-136 1270.1926,-136 1885.2286,-136 1885.2286,-136 1885.2286,-136 1885.2286,-151.8495 1885.2286,-151.8495"/>
<polygon fill="#000000" stroke="#000000" points="1881.7287,-151.8494 1885.2286,-161.8495 1888.7287,-151.8495 1881.7287,-151.8494"/>
</g>
<!-- PagesModule -->
<g id="node18" class="node">
<title>PagesModule</title>
<polygon fill="#8dd3c7" stroke="#000000" points="1942.2064,-263 1939.2064,-267 1918.2064,-267 1915.2064,-263 1849.7936,-263 1849.7936,-227 1942.2064,-227 1942.2064,-263"/>
<text text-anchor="middle" x="1896" y="-240.8" font-family="Times,serif" font-size="14.00" fill="#000000">PagesModule</text>
</g>
<!-- ThemeModule&#45;&gt;PagesModule -->
<g id="edge18" class="edge">
<title>ThemeModule&#45;&gt;PagesModule</title>
<path fill="none" stroke="#000000" d="M1319.4037,-122.2067C1319.4037,-159.0559 1319.4037,-239 1319.4037,-239 1319.4037,-239 1839.7894,-239 1839.7894,-239"/>
<polygon fill="#000000" stroke="#000000" points="1839.7894,-242.5001 1849.7894,-239 1839.7893,-235.5001 1839.7894,-242.5001"/>
</g>
<!-- FlatRoutingModule -->
<g id="node8" class="node">
<title>FlatRoutingModule</title>
<polygon fill="#8dd3c7" stroke="#000000" points="1496.4468,-122 1493.4468,-126 1472.4468,-126 1469.4468,-122 1369.5532,-122 1369.5532,-86 1496.4468,-86 1496.4468,-122"/>
<text text-anchor="middle" x="1433" y="-99.8" font-family="Times,serif" font-size="14.00" fill="#000000">FlatRoutingModule</text>
</g>
<!-- FlatRoutingModule&#45;&gt;FlatModule -->
<g id="edge7" class="edge">
<title>FlatRoutingModule&#45;&gt;FlatModule</title>
<path fill="none" stroke="#000000" d="M1433,-122.1532C1433,-145.7566 1433,-184 1433,-184 1433,-184 1524.3085,-184 1524.3085,-184"/>
<polygon fill="#000000" stroke="#000000" points="1524.3085,-187.5001 1534.3085,-184 1524.3085,-180.5001 1524.3085,-187.5001"/>
</g>
<!-- FlatModule&#45;&gt;PagesModule -->
<g id="edge20" class="edge">
<title>FlatModule&#45;&gt;PagesModule</title>
<path fill="none" stroke="#000000" d="M1615.8404,-186C1693.2834,-186 1853.8131,-186 1853.8131,-186 1853.8131,-186 1853.8131,-216.9775 1853.8131,-216.9775"/>
<polygon fill="#000000" stroke="#000000" points="1850.3132,-216.9774 1853.8131,-226.9775 1857.3132,-216.9775 1850.3132,-216.9774"/>
</g>
<!-- SmartTableService -->
<g id="node10" class="node">
<title>SmartTableService</title>
<ellipse fill="#fdb462" stroke="#000000" cx="1733" cy="-104" rx="85.085" ry="18"/>
<text text-anchor="middle" x="1733" y="-99.8" font-family="Times,serif" font-size="14.00" fill="#000000">SmartTableService</text>
</g>
<!-- SmartTableService&#45;&gt;FlatModule -->
<g id="edge8" class="edge">
<title>SmartTableService&#45;&gt;FlatModule</title>
<path fill="none" stroke="#000000" d="M1733,-122.0267C1733,-142.7672 1733,-174 1733,-174 1733,-174 1625.6889,-174 1625.6889,-174"/>
<polygon fill="#000000" stroke="#000000" points="1625.689,-170.5001 1615.6889,-174 1625.6889,-177.5001 1625.689,-170.5001"/>
</g>
<!-- FlatService -->
<g id="node11" class="node">
<title>FlatService</title>
<ellipse fill="#fdb462" stroke="#000000" cx="1575" cy="-104" rx="55.0285" ry="18"/>
<text text-anchor="middle" x="1575" y="-99.8" font-family="Times,serif" font-size="14.00" fill="#000000">FlatService</text>
</g>
<!-- FlatService&#45;&gt;FlatModule -->
<g id="edge9" class="edge">
<title>FlatService&#45;&gt;FlatModule</title>
<path fill="none" stroke="#000000" d="M1575,-122.0109C1575,-122.0109 1575,-151.855 1575,-151.855"/>
<polygon fill="#000000" stroke="#000000" points="1571.5001,-151.8549 1575,-161.855 1578.5001,-151.855 1571.5001,-151.8549"/>
</g>
<!-- HomePageRoutingModule -->
<g id="node12" class="node">
<title>HomePageRoutingModule</title>
<polygon fill="#8dd3c7" stroke="#000000" points="1214.0912,-122 1211.0912,-126 1190.0912,-126 1187.0912,-122 1047.9088,-122 1047.9088,-86 1214.0912,-86 1214.0912,-122"/>
<text text-anchor="middle" x="1131" y="-99.8" font-family="Times,serif" font-size="14.00" fill="#000000">HomePageRoutingModule</text>
</g>
<!-- HomePageRoutingModule&#45;&gt;HouseModule -->
<g id="edge11" class="edge">
<title>HomePageRoutingModule&#45;&gt;HouseModule</title>
<path fill="none" stroke="#000000" d="M1070.3061,-122.0109C1070.3061,-122.0109 1070.3061,-151.855 1070.3061,-151.855"/>
<polygon fill="#000000" stroke="#000000" points="1066.8062,-151.8549 1070.3061,-161.855 1073.8062,-151.855 1066.8062,-151.8549"/>
</g>
<!-- HouseModule&#45;&gt;PagesModule -->
<g id="edge19" class="edge">
<title>HouseModule&#45;&gt;PagesModule</title>
<path fill="none" stroke="#000000" d="M1045,-198.2843C1045,-219.3211 1045,-251 1045,-251 1045,-251 1839.6422,-251 1839.6422,-251"/>
<polygon fill="#000000" stroke="#000000" points="1839.6422,-254.5001 1849.6422,-251 1839.6422,-247.5001 1839.6422,-254.5001"/>
</g>
<!-- HouseRoutingModule -->
<g id="node14" class="node">
<title>HouseRoutingModule</title>
<polygon fill="#8dd3c7" stroke="#000000" points="1030.4341,-122 1027.4341,-126 1006.4341,-126 1003.4341,-122 889.5659,-122 889.5659,-86 1030.4341,-86 1030.4341,-122"/>
<text text-anchor="middle" x="960" y="-99.8" font-family="Times,serif" font-size="14.00" fill="#000000">HouseRoutingModule</text>
</g>
<!-- HouseRoutingModule&#45;&gt;HouseModule -->
<g id="edge14" class="edge">
<title>HouseRoutingModule&#45;&gt;HouseModule</title>
<path fill="none" stroke="#000000" d="M1013.7795,-122.0109C1013.7795,-122.0109 1013.7795,-151.855 1013.7795,-151.855"/>
<polygon fill="#000000" stroke="#000000" points="1010.2795,-151.8549 1013.7795,-161.855 1017.2795,-151.855 1010.2795,-151.8549"/>
</g>
<!-- HouseService -->
<g id="node15" class="node">
<title>HouseService</title>
<ellipse fill="#fdb462" stroke="#000000" cx="801" cy="-104" rx="64.8254" ry="18"/>
<text text-anchor="middle" x="801" y="-99.8" font-family="Times,serif" font-size="14.00" fill="#000000">HouseService</text>
</g>
<!-- HouseService&#45;&gt;HouseModule -->
<g id="edge15" class="edge">
<title>HouseService&#45;&gt;HouseModule</title>
<path fill="none" stroke="#000000" d="M801,-122.0449C801,-143.6623 801,-177 801,-177 801,-177 987.0846,-177 987.0846,-177"/>
<polygon fill="#000000" stroke="#000000" points="987.0846,-180.5001 997.0846,-177 987.0845,-173.5001 987.0846,-180.5001"/>
</g>
<!-- PagesRoutingModule -->
<g id="node16" class="node">
<title>PagesRoutingModule</title>
<polygon fill="#8dd3c7" stroke="#000000" points="2121.8244,-198 2118.8244,-202 2097.8244,-202 2094.8244,-198 1984.1756,-198 1984.1756,-162 2121.8244,-162 2121.8244,-198"/>
<text text-anchor="middle" x="2053" y="-175.8" font-family="Times,serif" font-size="14.00" fill="#000000">PagesRoutingModule</text>
</g>
<!-- PagesRoutingModule&#45;&gt;PagesModule -->
<g id="edge17" class="edge">
<title>PagesRoutingModule&#45;&gt;PagesModule</title>
<path fill="none" stroke="#000000" d="M2053,-198.1061C2053,-217.3391 2053,-245 2053,-245 2053,-245 1952.256,-245 1952.256,-245"/>
<polygon fill="#000000" stroke="#000000" points="1952.2561,-241.5001 1942.256,-245 1952.256,-248.5001 1952.2561,-241.5001"/>
</g>
<!-- ResidentModule&#45;&gt;PagesModule -->
<g id="edge21" class="edge">
<title>ResidentModule&#45;&gt;PagesModule</title>
<path fill="none" stroke="#000000" d="M1899.9162,-198.1061C1899.9162,-198.1061 1899.9162,-216.991 1899.9162,-216.991"/>
<polygon fill="#000000" stroke="#000000" points="1896.4163,-216.9909 1899.9162,-226.991 1903.4163,-216.991 1896.4163,-216.9909"/>
</g>
<!-- ResidentRoutingModule -->
<g id="node19" class="node">
<title>ResidentRoutingModule</title>
<polygon fill="#8dd3c7" stroke="#000000" points="2183.6596,-122 2180.6596,-126 2159.6596,-126 2156.6596,-122 2030.3404,-122 2030.3404,-86 2183.6596,-86 2183.6596,-122"/>
<text text-anchor="middle" x="2107" y="-99.8" font-family="Times,serif" font-size="14.00" fill="#000000">ResidentRoutingModule</text>
</g>
<!-- ResidentRoutingModule&#45;&gt;ResidentModule -->
<g id="edge23" class="edge">
<title>ResidentRoutingModule&#45;&gt;ResidentModule</title>
<path fill="none" stroke="#000000" d="M2075.9162,-122.0439C2075.9162,-134.5633 2075.9162,-149 2075.9162,-149 2075.9162,-149 1939.2567,-149 1939.2567,-149 1939.2567,-149 1939.2567,-151.9672 1939.2567,-151.9672"/>
<polygon fill="#000000" stroke="#000000" points="1935.7568,-151.9671 1939.2567,-161.9672 1942.7568,-151.9672 1935.7568,-151.9671"/>
</g>
<!-- ResidentService -->
<g id="node20" class="node">
<title>ResidentService</title>
<ellipse fill="#fdb462" stroke="#000000" cx="1932" cy="-104" rx="73.5714" ry="18"/>
<text text-anchor="middle" x="1932" y="-99.8" font-family="Times,serif" font-size="14.00" fill="#000000">ResidentService</text>
</g>
<!-- ResidentService&#45;&gt;ResidentModule -->
<g id="edge24" class="edge">
<title>ResidentService&#45;&gt;ResidentModule</title>
<path fill="none" stroke="#000000" d="M1912.2426,-121.627C1912.2426,-121.627 1912.2426,-151.9409 1912.2426,-151.9409"/>
<polygon fill="#000000" stroke="#000000" points="1908.7427,-151.9408 1912.2426,-161.9409 1915.7427,-151.9409 1908.7427,-151.9408"/>
</g>
</g>
</svg>
